<?xml version="1.0" standalone="no"?><!DOCTYPE svg PUBLIC "-//W3C//DTD SVG 1.1//EN" "http://www.w3.org/Graphics/SVG/1.1/DTD/svg11.dtd"><svg t="1522293375618" class="icon" style="" viewBox="0 0 1053 1024" version="1.1" xmlns="http://www.w3.org/2000/svg" p-id="1725" xmlns:xlink="http://www.w3.org/1999/xlink" width="205.6640625" height="200"><defs><style type="text/css"></style></defs><path d="M823.324555 560.78079L533.812548 32.520527 242.714175 549.67622l283.959721-72.179706z" fill="#7CB0F1" p-id="1726"></path><path d="M855.051898 586.162665L526.673896 494.153369l-315.687064 79.318358L533.812548 0l321.23935 586.162665zM526.673896 461.632843l264.130132 73.766073L533.812548 65.041053l-259.37103 460.046476 252.232378-63.454686z" fill="#131313" p-id="1727"></path><path d="M526.673896 732.901627L77.731991 842.36096 31.727343 923.265686l502.085205-126.909373 487.807901 126.909373-46.004647-83.284276z" fill="#7CB0F1" p-id="1728"></path><path d="M1053.347792 947.854376l-519.535244-134.841208-533.812548 134.841208 67.420604-118.977536 459.253292-111.838885 460.046476 109.459334 66.62742 121.357087zM88.043377 855.845081l-23.795507 42.831914 469.564678-118.977537 456.080558 118.977537-24.588691-44.418281-438.630519-105.493416-438.630519 107.079783z" fill="#131313" p-id="1729"></path><path d="M526.673896 732.901627l448.941906 107.079783-152.291247-279.20062-296.650659-83.284276-283.959721 72.179706-164.982184 292.68474z" fill="#FFFFFF" p-id="1730"></path><path d="M46.004648 866.156468l186.398141-330.757552 295.064291-74.559257L833.635941 547.296669l172.91402 315.687065-479.876065-114.218436-480.669248 117.39117zM253.025562 563.160341l-143.566228 254.611929 417.214562-101.527499 418.007746 99.941131-132.461657-241.920991-285.546089-80.111542L253.025562 563.160341z" fill="#131313" p-id="1731"></path><path d="M526.673896 1008.136328L420.387297 824.910922 533.812548 32.520527l103.907049 790.804028z" fill="#CBD9E9" p-id="1732"></path><path d="M526.673896 1024c-5.552285 0-11.10457-3.172734-13.484121-7.931836L406.903176 832.842758c-1.586367-3.172734-2.379551-6.345469-1.586367-10.311387L517.948877 30.140976c0.793184-7.931836 7.931836-13.484121 15.863671-13.484121s14.277304 5.552285 15.863672 13.484121l103.907049 790.804028c0.793184 3.172734 0 7.138652-2.379551 10.311386l-111.045701 184.811774c-2.379551 5.552285-7.931836 7.931836-13.484121 7.931836z m-89.629744-202.261813l90.422928 155.463982 94.388846-157.050349-88.836561-671.033307-95.975213 672.619674z" fill="#131313" p-id="1733"></path><path d="M510.857816 1008.53292l6.670674-975.615801 31.727343 0.214159-6.662742 975.615802z" fill="#131313" p-id="1734"></path></svg>